<svg width="84" height="84" viewBox="0 0 84 84" fill="none" xmlns="http://www.w3.org/2000/svg" xmlns:xlink="http://www.w3.org/1999/xlink">
<path d="M64.312,0L19.688,0C8.814,0 0,8.814 0,19.688L0,64.312C0,75.186 8.814,84 19.688,84L64.312,84C75.186,84 84,75.186 84,64.312L84,19.688C84,8.814 75.186,0 64.312,0Z" fill="url(#pf_0_1_93)"/>
<path d="M64.312,0L19.688,0C8.814,0 0,8.814 0,19.688L0,64.312C0,75.186 8.814,84 19.688,84L64.312,84C75.186,84 84,75.186 84,64.312L84,19.688C84,8.814 75.186,0 64.312,0Z" fill="url(#pf_0_1_94)"/>
<path d="M42.003,9.188C33.092,9.188 31.973,9.227 28.473,9.386C24.98,9.546 22.596,10.099 20.509,10.91C18.351,11.748 16.52,12.869 14.697,14.694C12.871,16.518 11.75,18.348 10.909,20.506C10.096,22.593 9.542,24.978 9.385,28.47C9.229,31.97 9.188,33.089 9.188,42C9.188,50.912 9.227,52.027 9.386,55.527C9.546,59.02 10.099,61.404 10.91,63.491C11.749,65.649 12.87,67.48 14.694,69.303C16.518,71.129 18.348,72.253 20.505,73.091C22.593,73.902 24.978,74.455 28.47,74.615C31.971,74.774 33.088,74.813 41.999,74.813C50.911,74.813 52.026,74.774 55.526,74.615C59.019,74.455 61.406,73.902 63.494,73.091C65.651,72.253 67.48,71.129 69.303,69.303C71.128,67.48 72.249,65.649 73.09,63.491C73.896,61.404 74.45,59.019 74.614,55.527C74.772,52.028 74.813,50.912 74.813,42C74.813,33.089 74.772,31.971 74.614,28.47C74.45,24.977 73.896,22.593 73.09,20.507C72.249,18.348 71.128,16.518 69.303,14.694C67.477,12.869 65.652,11.748 63.492,10.91C61.4,10.099 59.015,9.545 55.521,9.386C52.021,9.227 50.907,9.188 41.993,9.188L42.003,9.188ZM39.059,15.101C39.933,15.099 40.908,15.101 42.003,15.101C50.764,15.101 51.803,15.132 55.262,15.289C58.461,15.436 60.198,15.97 61.355,16.419C62.886,17.014 63.977,17.725 65.125,18.874C66.274,20.022 66.985,21.116 67.581,22.647C68.03,23.802 68.565,25.539 68.711,28.738C68.868,32.197 68.902,33.236 68.902,41.993C68.902,50.75 68.868,51.789 68.711,55.248C68.564,58.447 68.03,60.183 67.581,61.339C66.986,62.87 66.274,63.961 65.125,65.108C63.977,66.257 62.886,66.967 61.355,67.562C60.199,68.014 58.461,68.547 55.262,68.693C51.803,68.85 50.764,68.884 42.003,68.884C33.241,68.884 32.203,68.85 28.744,68.693C25.545,68.545 23.808,68.011 22.651,67.562C21.12,66.967 20.026,66.256 18.877,65.108C17.729,63.959 17.018,62.868 16.422,61.336C15.973,60.181 15.438,58.444 15.292,55.245C15.135,51.786 15.103,50.747 15.103,41.985C15.103,33.222 15.135,32.189 15.292,28.73C15.438,25.53 15.973,23.794 16.422,22.637C17.017,21.106 17.729,20.012 18.878,18.864C20.026,17.715 21.12,17.004 22.651,16.409C23.808,15.957 25.545,15.424 28.744,15.277C31.771,15.14 32.944,15.099 39.059,15.092L39.059,15.101ZM59.518,20.549C57.345,20.549 55.581,22.311 55.581,24.485C55.581,26.659 57.345,28.423 59.518,28.423C61.692,28.423 63.456,26.659 63.456,24.485C63.456,22.311 61.692,20.548 59.518,20.548L59.518,20.549ZM42.003,25.149C32.697,25.149 25.152,32.694 25.152,42C25.152,51.306 32.697,58.847 42.003,58.847C51.309,58.847 58.851,51.306 58.851,42C58.851,32.695 51.308,25.149 42.002,25.149L42.003,25.149ZM42.003,31.063C48.043,31.063 52.941,35.959 52.941,42C52.941,48.041 48.043,52.938 42.003,52.938C35.962,52.938 31.066,48.041 31.066,42C31.066,35.959 35.962,31.063 42.003,31.063Z" fill="#FFFFFF"/>
<defs>
<radialGradient id="pf_0_1_93" cx="0" cy="0" r="1" gradientUnits="userSpaceOnUse" gradientTransform="matrix(0 -41.625118 38.714649 0 11.156 45.235)">
<stop stop-color="#FFDD55"/>
<stop offset="0.1" stop-color="#FFDD55"/>
<stop offset="0.5" stop-color="#FF543E"/>
<stop offset="1" stop-color="#C837AB"/>
</radialGradient>
<radialGradient id="pf_0_1_94" cx="0" cy="0" r="1" gradientUnits="userSpaceOnUse" gradientTransform="matrix(3.651952 18.24475 -75.205458 15.053467 -7.035 3.025)">
<stop stop-color="#3771C8"/>
<stop offset="0.128" stop-color="#3771C8"/>
<stop offset="1" stop-color="#6600FF" stop-opacity="0"/>
</radialGradient>
</defs>
</svg>
