<svg width="94" height="94" viewBox="0 0 94 94" fill="none" xmlns="http://www.w3.org/2000/svg" xmlns:xlink="http://www.w3.org/1999/xlink">
<path d="M47,0C34.538,0 22.575,4.955 13.77,13.766C4.955,22.58 0.003,34.535 0,47C0,59.46 4.957,71.423 13.77,80.234C22.575,89.045 34.538,94 47,94C59.462,94 71.425,89.045 80.23,80.234C89.043,71.423 94,59.46 94,47C94,34.54 89.043,22.577 80.23,13.766C71.425,4.955 59.462,0 47,0Z" fill="url(#pf_0_1_97)"/>
<path d="M21.275,46.504C34.978,40.535 44.114,36.599 48.682,34.698C61.739,29.269 64.449,28.326 66.219,28.294C66.608,28.287 67.474,28.384 68.04,28.841C68.51,29.226 68.642,29.748 68.708,30.114C68.767,30.479 68.848,31.313 68.782,31.964C68.077,39.396 65.014,57.43 63.457,65.755C62.804,69.277 61.504,70.457 60.248,70.573C57.516,70.824 55.445,68.769 52.802,67.037C48.667,64.325 46.332,62.637 42.315,59.991C37.673,56.933 40.684,55.252 43.328,52.506C44.018,51.787 56.047,40.848 56.275,39.856C56.304,39.732 56.334,39.269 56.055,39.025C55.783,38.781 55.379,38.865 55.085,38.931C54.667,39.025 48.065,43.393 35.257,52.034C33.385,53.322 31.688,53.95 30.161,53.917C28.486,53.881 25.255,52.968 22.854,52.188C19.916,51.232 17.574,50.726 17.779,49.1C17.882,48.254 19.05,47.388 21.275,46.504Z" fill="#FFFFFF"/>
<defs>
<linearGradient id="pf_0_1_97" x1="4700" y1="0" x2="4700" y2="9400" gradientUnits="userSpaceOnUse">
<stop stop-color="#2AABEE"/>
<stop offset="1" stop-color="#229ED9"/>
</linearGradient>
</defs>
</svg>
