<svg width="116" height="122" viewBox="0 0 116 122" fill="none" xmlns="http://www.w3.org/2000/svg" xmlns:xlink="http://www.w3.org/1999/xlink">
<path d="M114.139,110.422L105.8,85.4L96.65,85.4L101.731,109.8L12.269,109.8L17.35,85.4L8.2,85.4L-0.145,110.422C-2.262,116.791 1.49,122 8.2,122L105.8,122C112.51,122 116.261,116.791 114.139,110.422ZM87.5,30.5C87.5,22.411 84.287,14.653 78.567,8.933C72.847,3.213 65.089,0 57,0C48.911,0 41.153,3.213 35.433,8.933C29.713,14.653 26.5,22.411 26.5,30.5C26.5,59.627 57,91.5 57,91.5C57,91.5 87.5,59.627 87.5,30.5ZM40.53,30.866C40.532,26.499 42.268,22.311 45.356,19.224C48.445,16.136 52.633,14.402 57,14.402C61.367,14.402 65.556,16.137 68.644,19.225C71.732,22.313 73.467,26.502 73.467,30.869C73.467,35.236 71.732,39.425 68.644,42.513C65.556,45.601 61.367,47.336 57,47.336C52.632,47.336 48.443,45.601 45.354,42.512C42.265,39.423 40.53,35.234 40.53,30.866Z" fill="#CA9A37"/>
</svg>
