<svg width="46" height="74" viewBox="0 0 46 74" fill="none" xmlns="http://www.w3.org/2000/svg" xmlns:xlink="http://www.w3.org/1999/xlink">
<path d="M23,0C16.9,0 11.05,2.436 6.737,6.773C2.423,11.11 0,16.992 0,23.125C0,46.25 23,74 23,74C23,74 46,46.25 46,23.125C46,16.992 43.577,11.11 39.263,6.773C34.95,2.436 29.1,0 23,0ZM23,37C19.34,37 15.83,35.538 13.242,32.936C10.654,30.334 9.2,26.805 9.2,23.125C9.2,19.445 10.654,15.916 13.242,13.314C15.83,10.712 19.34,9.25 23,9.25C26.66,9.25 30.17,10.712 32.758,13.314C35.346,15.916 36.8,19.445 36.8,23.125C36.8,26.805 35.346,30.334 32.758,32.936C30.17,35.538 26.66,37 23,37Z" fill="#FF0000"/>
</svg>
