<svg width="96" height="96" viewBox="0 0 96 96" fill="none" xmlns="http://www.w3.org/2000/svg" xmlns:xlink="http://www.w3.org/1999/xlink">
<path d="M47.549,95.363C73.659,95.363 95.361,73.707 95.361,47.551C95.361,21.441 73.611,-0.261 47.501,-0.261C21.347,-0.261 -0.261,21.441 -0.261,47.551C-0.261,73.707 21.393,95.363 47.549,95.363ZM47.551,87.395C25.423,87.395 7.749,69.675 7.749,47.551C7.749,25.471 25.375,7.707 47.501,7.707C69.579,7.707 87.343,25.473 87.391,47.551C87.437,69.677 69.625,87.395 47.547,87.395M47.501,34.191C31.469,34.191 16.657,39.067 16.657,50.597L16.657,52.145C16.657,55.565 18.531,57.769 22.141,57.301C24.861,56.881 27.531,56.457 32.125,55.567C35.453,55.005 36.391,53.457 36.437,50.457L36.437,47.833C36.437,46.941 37.187,46.473 37.843,46.285C39.531,45.911 43.235,45.489 47.547,45.489C51.859,45.489 55.421,45.817 57.249,46.285C57.907,46.473 58.609,47.083 58.609,47.833L58.657,50.457C58.703,53.411 59.593,55.005 62.969,55.567C67.375,56.411 70.093,56.879 72.907,57.301C76.515,57.769 78.391,55.613 78.391,52.145L78.391,50.597C78.391,39.113 63.625,34.191 47.501,34.191Z" transform="rotate(-293.396 47.55 47.551)" fill="#CA9A37"/>
</svg>
